<mxfile host="app.diagrams.net" agent="Mozilla/5.0 (X11; Linux x86_64) AppleWebKit/537.36 (KHTML, like Gecko) Chrome/129.0.0.0 Safari/537.36" version="24.7.17">
  <diagram id="C5RBs43oDa-KdzZeNtuy" name="Page-1">
    <mxGraphModel dx="2261" dy="1928" grid="1" gridSize="10" guides="1" tooltips="1" connect="1" arrows="1" fold="1" page="1" pageScale="1" pageWidth="827" pageHeight="1169" math="0" shadow="0">
      <root>
        <mxCell id="WIyWlLk6GJQsqaUBKTNV-0" />
        <mxCell id="WIyWlLk6GJQsqaUBKTNV-1" parent="WIyWlLk6GJQsqaUBKTNV-0" />
        <mxCell id="dhXPU708QK2LbwDQzdHe-0" value="UsuÃ¡rio" style="swimlane;fontStyle=0;childLayout=stackLayout;horizontal=1;startSize=26;fillColor=none;horizontalStack=0;resizeParent=1;resizeParentMax=0;resizeLast=0;collapsible=1;marginBottom=0;whiteSpace=wrap;html=1;" vertex="1" parent="WIyWlLk6GJQsqaUBKTNV-1">
          <mxGeometry x="-110" y="80" width="170" height="110" as="geometry" />
        </mxCell>
        <mxCell id="dhXPU708QK2LbwDQzdHe-1" value="- login: String;&lt;div&gt;- Senha: String&lt;/div&gt;&lt;div&gt;- idade: smallint;&lt;/div&gt;&lt;div&gt;- genero: Char;&lt;/div&gt;&lt;div&gt;- escolaridade: Escolaridade;&lt;/div&gt;" style="text;strokeColor=none;fillColor=none;align=left;verticalAlign=top;spacingLeft=4;spacingRight=4;overflow=hidden;rotatable=0;points=[[0,0.5],[1,0.5]];portConstraint=eastwest;whiteSpace=wrap;html=1;" vertex="1" parent="dhXPU708QK2LbwDQzdHe-0">
          <mxGeometry y="26" width="170" height="84" as="geometry" />
        </mxCell>
        <mxCell id="dhXPU708QK2LbwDQzdHe-21" style="edgeStyle=orthogonalEdgeStyle;rounded=0;orthogonalLoop=1;jettySize=auto;html=1;" edge="1" parent="WIyWlLk6GJQsqaUBKTNV-1" source="dhXPU708QK2LbwDQzdHe-5" target="dhXPU708QK2LbwDQzdHe-17">
          <mxGeometry relative="1" as="geometry" />
        </mxCell>
        <mxCell id="dhXPU708QK2LbwDQzdHe-5" value="Jogo" style="swimlane;fontStyle=0;childLayout=stackLayout;horizontal=1;startSize=26;fillColor=none;horizontalStack=0;resizeParent=1;resizeParentMax=0;resizeLast=0;collapsible=1;marginBottom=0;whiteSpace=wrap;html=1;" vertex="1" parent="WIyWlLk6GJQsqaUBKTNV-1">
          <mxGeometry x="410" y="110" width="170" height="110" as="geometry" />
        </mxCell>
        <mxCell id="dhXPU708QK2LbwDQzdHe-45" style="edgeStyle=orthogonalEdgeStyle;rounded=0;orthogonalLoop=1;jettySize=auto;html=1;endArrow=diamondThin;endFill=1;" edge="1" parent="dhXPU708QK2LbwDQzdHe-5" source="dhXPU708QK2LbwDQzdHe-6">
          <mxGeometry relative="1" as="geometry">
            <mxPoint x="-80" y="40" as="targetPoint" />
          </mxGeometry>
        </mxCell>
        <mxCell id="dhXPU708QK2LbwDQzdHe-6" value="- titulo: String;&lt;div&gt;- escolaridade: Escolaridade;&lt;/div&gt;&lt;div&gt;- tipo: TipoJogo;&lt;/div&gt;&lt;div&gt;- concluido: boolean&lt;/div&gt;" style="text;strokeColor=none;fillColor=none;align=left;verticalAlign=top;spacingLeft=4;spacingRight=4;overflow=hidden;rotatable=0;points=[[0,0.5],[1,0.5]];portConstraint=eastwest;whiteSpace=wrap;html=1;" vertex="1" parent="dhXPU708QK2LbwDQzdHe-5">
          <mxGeometry y="26" width="170" height="84" as="geometry" />
        </mxCell>
        <mxCell id="dhXPU708QK2LbwDQzdHe-7" value="&lt;p style=&quot;margin:0px;margin-top:4px;text-align:center;text-decoration:underline;&quot;&gt;&lt;b&gt;TipoJogo:Enum&lt;/b&gt;&lt;/p&gt;&lt;hr size=&quot;1&quot; style=&quot;border-style:solid;&quot;&gt;&lt;p style=&quot;margin:0px;margin-left:8px;&quot;&gt;QuebraCabeca = 1&lt;br&gt;Colorir = 2&lt;br&gt;Escrita = 3&lt;/p&gt;&lt;p style=&quot;margin:0px;margin-left:8px;&quot;&gt;Conexao = 4&lt;/p&gt;" style="verticalAlign=top;align=left;overflow=fill;html=1;whiteSpace=wrap;" vertex="1" parent="WIyWlLk6GJQsqaUBKTNV-1">
          <mxGeometry x="650" y="110" width="160" height="90" as="geometry" />
        </mxCell>
        <mxCell id="dhXPU708QK2LbwDQzdHe-8" value="&lt;p style=&quot;margin:0px;margin-top:4px;text-align:center;text-decoration:underline;&quot;&gt;&lt;b&gt;Escolaridade:Enum&lt;/b&gt;&lt;/p&gt;&lt;hr size=&quot;1&quot; style=&quot;border-style:solid;&quot;&gt;&lt;p style=&quot;margin:0px;margin-left:8px;&quot;&gt;EducacaoInfantil = 1&lt;br&gt;FundamentalInicial = 2&lt;br&gt;FundamentalFinal = 3&lt;/p&gt;&lt;p style=&quot;margin:0px;margin-left:8px;&quot;&gt;Medio = 4&lt;/p&gt;&lt;p style=&quot;margin:0px;margin-left:8px;&quot;&gt;Superior = 5&lt;/p&gt;" style="verticalAlign=top;align=left;overflow=fill;html=1;whiteSpace=wrap;" vertex="1" parent="WIyWlLk6GJQsqaUBKTNV-1">
          <mxGeometry x="170" y="340" width="160" height="110" as="geometry" />
        </mxCell>
        <mxCell id="dhXPU708QK2LbwDQzdHe-9" style="edgeStyle=orthogonalEdgeStyle;rounded=0;orthogonalLoop=1;jettySize=auto;html=1;entryX=0;entryY=0.25;entryDx=0;entryDy=0;endArrow=none;endFill=0;startArrow=diamond;startFill=1;exitX=0.993;exitY=0.036;exitDx=0;exitDy=0;exitPerimeter=0;strokeWidth=3;" edge="1" parent="WIyWlLk6GJQsqaUBKTNV-1" source="dhXPU708QK2LbwDQzdHe-6" target="dhXPU708QK2LbwDQzdHe-7">
          <mxGeometry relative="1" as="geometry" />
        </mxCell>
        <mxCell id="dhXPU708QK2LbwDQzdHe-11" style="edgeStyle=orthogonalEdgeStyle;rounded=0;orthogonalLoop=1;jettySize=auto;html=1;exitX=0;exitY=0;exitDx=0;exitDy=0;entryX=0.459;entryY=1.012;entryDx=0;entryDy=0;entryPerimeter=0;startArrow=none;startFill=0;endArrow=diamond;endFill=1;strokeWidth=3;" edge="1" parent="WIyWlLk6GJQsqaUBKTNV-1" source="dhXPU708QK2LbwDQzdHe-8" target="dhXPU708QK2LbwDQzdHe-1">
          <mxGeometry relative="1" as="geometry" />
        </mxCell>
        <mxCell id="dhXPU708QK2LbwDQzdHe-12" style="edgeStyle=orthogonalEdgeStyle;rounded=0;orthogonalLoop=1;jettySize=auto;html=1;exitX=1;exitY=0;exitDx=0;exitDy=0;entryX=0.518;entryY=0.988;entryDx=0;entryDy=0;entryPerimeter=0;endArrow=diamond;endFill=1;strokeWidth=3;" edge="1" parent="WIyWlLk6GJQsqaUBKTNV-1" source="dhXPU708QK2LbwDQzdHe-8" target="dhXPU708QK2LbwDQzdHe-6">
          <mxGeometry relative="1" as="geometry" />
        </mxCell>
        <mxCell id="dhXPU708QK2LbwDQzdHe-13" value="Audio" style="swimlane;fontStyle=0;childLayout=stackLayout;horizontal=1;startSize=26;fillColor=none;horizontalStack=0;resizeParent=1;resizeParentMax=0;resizeLast=0;collapsible=1;marginBottom=0;whiteSpace=wrap;html=1;" vertex="1" parent="WIyWlLk6GJQsqaUBKTNV-1">
          <mxGeometry x="110" y="-61" width="140" height="78" as="geometry" />
        </mxCell>
        <mxCell id="dhXPU708QK2LbwDQzdHe-14" value="- duracao: int" style="text;strokeColor=none;fillColor=none;align=left;verticalAlign=top;spacingLeft=4;spacingRight=4;overflow=hidden;rotatable=0;points=[[0,0.5],[1,0.5]];portConstraint=eastwest;whiteSpace=wrap;html=1;" vertex="1" parent="dhXPU708QK2LbwDQzdHe-13">
          <mxGeometry y="26" width="140" height="26" as="geometry" />
        </mxCell>
        <mxCell id="dhXPU708QK2LbwDQzdHe-15" value="- titulo: String" style="text;strokeColor=none;fillColor=none;align=left;verticalAlign=top;spacingLeft=4;spacingRight=4;overflow=hidden;rotatable=0;points=[[0,0.5],[1,0.5]];portConstraint=eastwest;whiteSpace=wrap;html=1;" vertex="1" parent="dhXPU708QK2LbwDQzdHe-13">
          <mxGeometry y="52" width="140" height="26" as="geometry" />
        </mxCell>
        <mxCell id="dhXPU708QK2LbwDQzdHe-17" value="Questao" style="swimlane;fontStyle=0;childLayout=stackLayout;horizontal=1;startSize=26;fillColor=none;horizontalStack=0;resizeParent=1;resizeParentMax=0;resizeLast=0;collapsible=1;marginBottom=0;whiteSpace=wrap;html=1;" vertex="1" parent="WIyWlLk6GJQsqaUBKTNV-1">
          <mxGeometry x="400" y="-86" width="240" height="120" as="geometry" />
        </mxCell>
        <mxCell id="dhXPU708QK2LbwDQzdHe-18" value="- figuras: Vec&amp;lt;Figura&amp;gt;;&lt;div&gt;- enunciado: String;&lt;/div&gt;&lt;div&gt;- audio: Audio;&lt;/div&gt;&lt;div&gt;- tempo: int;&lt;/div&gt;&lt;div&gt;- codigo: vec![Codigo, Codigo, Codigo];&lt;/div&gt;&lt;div&gt;- resposta: String;&lt;/div&gt;" style="text;strokeColor=none;fillColor=none;align=left;verticalAlign=top;spacingLeft=4;spacingRight=4;overflow=hidden;rotatable=0;points=[[0,0.5],[1,0.5]];portConstraint=eastwest;whiteSpace=wrap;html=1;" vertex="1" parent="dhXPU708QK2LbwDQzdHe-17">
          <mxGeometry y="26" width="240" height="94" as="geometry" />
        </mxCell>
        <mxCell id="dhXPU708QK2LbwDQzdHe-26" style="edgeStyle=orthogonalEdgeStyle;rounded=0;orthogonalLoop=1;jettySize=auto;html=1;entryX=1;entryY=0.5;entryDx=0;entryDy=0;endArrow=diamond;endFill=1;" edge="1" parent="WIyWlLk6GJQsqaUBKTNV-1" source="dhXPU708QK2LbwDQzdHe-22" target="dhXPU708QK2LbwDQzdHe-18">
          <mxGeometry relative="1" as="geometry" />
        </mxCell>
        <mxCell id="dhXPU708QK2LbwDQzdHe-22" value="Codigo" style="swimlane;fontStyle=0;childLayout=stackLayout;horizontal=1;startSize=26;fillColor=none;horizontalStack=0;resizeParent=1;resizeParentMax=0;resizeLast=0;collapsible=1;marginBottom=0;whiteSpace=wrap;html=1;" vertex="1" parent="WIyWlLk6GJQsqaUBKTNV-1">
          <mxGeometry x="780" y="-43" width="140" height="60" as="geometry" />
        </mxCell>
        <mxCell id="dhXPU708QK2LbwDQzdHe-23" value="- figura: Figura;&lt;div&gt;- valor: int;&lt;/div&gt;" style="text;strokeColor=none;fillColor=none;align=left;verticalAlign=top;spacingLeft=4;spacingRight=4;overflow=hidden;rotatable=0;points=[[0,0.5],[1,0.5]];portConstraint=eastwest;whiteSpace=wrap;html=1;" vertex="1" parent="dhXPU708QK2LbwDQzdHe-22">
          <mxGeometry y="26" width="140" height="34" as="geometry" />
        </mxCell>
        <mxCell id="dhXPU708QK2LbwDQzdHe-27" value="Figura" style="swimlane;fontStyle=0;childLayout=stackLayout;horizontal=1;startSize=26;fillColor=none;horizontalStack=0;resizeParent=1;resizeParentMax=0;resizeLast=0;collapsible=1;marginBottom=0;whiteSpace=wrap;html=1;" vertex="1" parent="WIyWlLk6GJQsqaUBKTNV-1">
          <mxGeometry x="640" y="-220" width="140" height="52" as="geometry" />
        </mxCell>
        <mxCell id="dhXPU708QK2LbwDQzdHe-28" value="- imagem: String;" style="text;strokeColor=none;fillColor=none;align=left;verticalAlign=top;spacingLeft=4;spacingRight=4;overflow=hidden;rotatable=0;points=[[0,0.5],[1,0.5]];portConstraint=eastwest;whiteSpace=wrap;html=1;" vertex="1" parent="dhXPU708QK2LbwDQzdHe-27">
          <mxGeometry y="26" width="140" height="26" as="geometry" />
        </mxCell>
        <mxCell id="dhXPU708QK2LbwDQzdHe-31" style="edgeStyle=orthogonalEdgeStyle;rounded=0;orthogonalLoop=1;jettySize=auto;html=1;entryX=1.004;entryY=0.223;entryDx=0;entryDy=0;entryPerimeter=0;startArrow=none;startFill=0;endArrow=diamond;endFill=1;strokeWidth=2;" edge="1" parent="WIyWlLk6GJQsqaUBKTNV-1" source="dhXPU708QK2LbwDQzdHe-27" target="dhXPU708QK2LbwDQzdHe-18">
          <mxGeometry relative="1" as="geometry" />
        </mxCell>
        <mxCell id="dhXPU708QK2LbwDQzdHe-32" style="edgeStyle=orthogonalEdgeStyle;rounded=0;orthogonalLoop=1;jettySize=auto;html=1;exitX=0;exitY=0;exitDx=0;exitDy=0;entryX=0.621;entryY=1;entryDx=0;entryDy=0;entryPerimeter=0;endArrow=none;endFill=0;startArrow=diamond;startFill=1;strokeWidth=2;" edge="1" parent="WIyWlLk6GJQsqaUBKTNV-1" source="dhXPU708QK2LbwDQzdHe-22" target="dhXPU708QK2LbwDQzdHe-28">
          <mxGeometry relative="1" as="geometry">
            <Array as="points">
              <mxPoint x="780" y="-40" />
              <mxPoint x="727" y="-40" />
            </Array>
          </mxGeometry>
        </mxCell>
        <mxCell id="dhXPU708QK2LbwDQzdHe-33" style="edgeStyle=orthogonalEdgeStyle;rounded=0;orthogonalLoop=1;jettySize=auto;html=1;entryX=0.008;entryY=0.426;entryDx=0;entryDy=0;entryPerimeter=0;endArrow=diamond;endFill=1;" edge="1" parent="WIyWlLk6GJQsqaUBKTNV-1" source="dhXPU708QK2LbwDQzdHe-14" target="dhXPU708QK2LbwDQzdHe-18">
          <mxGeometry relative="1" as="geometry" />
        </mxCell>
        <mxCell id="dhXPU708QK2LbwDQzdHe-46" style="edgeStyle=orthogonalEdgeStyle;rounded=0;orthogonalLoop=1;jettySize=auto;html=1;entryX=1;entryY=0.5;entryDx=0;entryDy=0;endArrow=none;endFill=0;" edge="1" parent="WIyWlLk6GJQsqaUBKTNV-1" source="dhXPU708QK2LbwDQzdHe-41" target="dhXPU708QK2LbwDQzdHe-1">
          <mxGeometry relative="1" as="geometry" />
        </mxCell>
        <mxCell id="dhXPU708QK2LbwDQzdHe-47" value="0..1" style="edgeLabel;html=1;align=center;verticalAlign=middle;resizable=0;points=[];" vertex="1" connectable="0" parent="dhXPU708QK2LbwDQzdHe-46">
          <mxGeometry x="0.7561" y="1" relative="1" as="geometry">
            <mxPoint as="offset" />
          </mxGeometry>
        </mxCell>
        <mxCell id="dhXPU708QK2LbwDQzdHe-48" value="1" style="edgeLabel;html=1;align=center;verticalAlign=middle;resizable=0;points=[];" vertex="1" connectable="0" parent="dhXPU708QK2LbwDQzdHe-46">
          <mxGeometry x="-0.7886" y="4" relative="1" as="geometry">
            <mxPoint as="offset" />
          </mxGeometry>
        </mxCell>
        <mxCell id="dhXPU708QK2LbwDQzdHe-41" value="CaminhoJogos&amp;lt;Fila&amp;gt;" style="swimlane;fontStyle=0;childLayout=stackLayout;horizontal=1;startSize=26;fillColor=none;horizontalStack=0;resizeParent=1;resizeParentMax=0;resizeLast=0;collapsible=1;marginBottom=0;whiteSpace=wrap;html=1;" vertex="1" parent="WIyWlLk6GJQsqaUBKTNV-1">
          <mxGeometry x="180" y="119" width="140" height="52" as="geometry" />
        </mxCell>
      </root>
    </mxGraphModel>
  </diagram>
</mxfile>
